# xmcd
#
# Track frame offsets: 
#        150
#        30533
#        59750
#        75126
#        93817
#        122456
#        145997
#        170977
#
# Disc length: 2593 seconds
#
# Revision: 0
# Processed by: cddbd v1.5.2PL0 Copyright (c) Steve Scherf et al.
# Submitted via: ExactAudioCopy v1.0b3
#
DISCID=610a1f08
DTITLE=Reality - Reality (Digitally Remastered)
DYEAR=1976
DGENRE=Disco
TTITLE0=Reality
TTITLE1=Road
TTITLE2=Disco Party (Let's Have A)
TTITLE3=Welcome
TTITLE4=Movin' and Groovin
TTITLE5=Let's Party People
TTITLE6=You Keep Me Holdin' On
TTITLE7=Clap and Hustle
EXTD=
EXTT0=
EXTT1=
EXTT2=
EXTT3=
EXTT4=
EXTT5=
EXTT6=
EXTT7=
PLAYORDER=
